<?xml version="1.0" encoding="UTF-8" standalone="no"?>
<!-- Created with Inkscape (http://www.inkscape.org/) -->

<svg
   xmlns:dc="http://purl.org/dc/elements/1.1/"
   xmlns:cc="http://creativecommons.org/ns#"
   xmlns:rdf="http://www.w3.org/1999/02/22-rdf-syntax-ns#"
   xmlns:svg="http://www.w3.org/2000/svg"
   xmlns="http://www.w3.org/2000/svg"
   xmlns:sodipodi="http://sodipodi.sourceforge.net/DTD/sodipodi-0.dtd"
   xmlns:inkscape="http://www.inkscape.org/namespaces/inkscape"
   width="210mm"
   height="297mm"
   id="svg3636"
   version="1.1"
   inkscape:version="0.48.4 r9939"
   sodipodi:docname="logo com caixa.svg">
  <defs
     id="defs3638" />
  <sodipodi:namedview
     id="base"
     pagecolor="#ffffff"
     bordercolor="#666666"
     borderopacity="1.0"
     inkscape:pageopacity="0.0"
     inkscape:pageshadow="2"
     inkscape:zoom="2.8"
     inkscape:cx="329.93358"
     inkscape:cy="559.09579"
     inkscape:document-units="px"
     inkscape:current-layer="layer1"
     showgrid="false"
     inkscape:window-width="1278"
     inkscape:window-height="1001"
     inkscape:window-x="0"
     inkscape:window-y="0"
     inkscape:window-maximized="1" />
  <metadata
     id="metadata3641">
    <rdf:RDF>
      <cc:Work
         rdf:about="">
        <dc:format>image/svg+xml</dc:format>
        <dc:type
           rdf:resource="http://purl.org/dc/dcmitype/StillImage" />
        <dc:title></dc:title>
      </cc:Work>
    </rdf:RDF>
  </metadata>
  <g
     inkscape:label="Camada 1"
     inkscape:groupmode="layer"
     id="layer1">
    <path
       sodipodi:type="arc"
       style="fill:none;stroke:none;stroke-width:1;stroke-miterlimit:4;stroke-opacity:1;stroke-dasharray:none;stroke-dashoffset:0"
       id="path3719"
       sodipodi:cx="356.3313"
       sodipodi:cy="542.48767"
       sodipodi:rx="67.427681"
       sodipodi:ry="67.427681"
       d="m 423.75898,542.48767 a 67.427681,67.427681 0 1 1 -134.85536,0 67.427681,67.427681 0 1 1 134.85536,0 z"
       transform="matrix(1.0015725,0,0,1.0015725,-7.2420998,-2.5484855)"
       inkscape:export-filename="/home/felipe/Dropbox/projetos/gaivota/material/logo novo 600.png"
       inkscape:export-xdpi="350.54001"
       inkscape:export-ydpi="350.54001" />
    <rect
       style="fill:none;stroke:none"
       id="rect3578"
       width="152.52505"
       height="138.18675"
       x="273.73749"
       y="463.2688"
       inkscape:export-filename="/home/felipe/Dropbox/projetos/gaivota/material/logo novo 600.png"
       inkscape:export-xdpi="350.54001"
       inkscape:export-ydpi="350.54001" />
    <path
       inkscape:connector-curvature="0"
       id="path3582"
       d="m 349.64948,472.75775 c -37.57224,0 -68.03443,30.46219 -68.03443,68.03449 0,5.42753 0.62133,10.70317 1.82401,15.76309 l 132.42086,0 c 1.1978,-5.05701 1.82409,-10.33788 1.82409,-15.76309 0,-37.5723 -30.4622,-68.03449 -68.03453,-68.03449 z"
       style="fill:#0000ff;fill-opacity:1;stroke:none"
       inkscape:export-filename="/home/felipe/Dropbox/projetos/gaivota/material/logo novo 600.png"
       inkscape:export-xdpi="350.54001"
       inkscape:export-ydpi="350.54001" />
    <g
       style="stroke:#000000;stroke-width:1.99067307;stroke-miterlimit:4;stroke-opacity:1;stroke-dasharray:none"
       id="g3584"
       transform="matrix(0.78150516,0.27827451,-0.27827451,0.78150516,-8.5362475,134.31101)"
       inkscape:export-filename="/home/felipe/Dropbox/projetos/gaivota/material/logo novo 600.png"
       inkscape:export-xdpi="350.54001"
       inkscape:export-ydpi="350.54001">
      <path
         style="fill:#ffffff;stroke:#000000;stroke-width:1.99067307;stroke-linecap:butt;stroke-linejoin:miter;stroke-miterlimit:4;stroke-opacity:1;stroke-dasharray:none"
         d="m 501.59323,362.2796 -1.67291,0 0,-2.2012 16.37152,-40.85971 7.21995,-6.33952 31.78539,-11.97455 12.76698,-32.75393 5.98728,-5.98727 41.91637,-17.07591 1.76096,0.70439 -0.52829,1.58486 -41.55873,21.7479 -12.59089,32.40173 2.72949,9.5092 -10.47773,-2.3773 -32.31368,12.15061 z"
         id="path3586"
         inkscape:connector-curvature="0"
         sodipodi:nodetypes="ccccccccccccccccc" />
      <path
         style="fill:#ffffff;stroke:#000000;stroke-width:1.6588943;stroke-linecap:butt;stroke-linejoin:miter;stroke-miterlimit:4;stroke-opacity:1;stroke-dasharray:none"
         d="m 556.77589,291.65042 -10.78028,10.38929 8.21089,-2.45768 z"
         id="path3588"
         inkscape:connector-curvature="0" />
    </g>
    <g
       style="font-size:87.67542267px;font-style:normal;font-weight:normal;text-align:center;line-height:125%;letter-spacing:0px;word-spacing:0px;text-anchor:middle;fill:#000000;fill-opacity:1;stroke:none;font-family:Sans"
       id="g3590"
       transform="matrix(0.27138756,0,0,0.27138756,251.96707,429.74855)"
       inkscape:export-filename="/home/felipe/Dropbox/projetos/gaivota/material/logo novo 600.png"
       inkscape:export-xdpi="350.54001"
       inkscape:export-ydpi="350.54001">
      <path
         d="m 188.5862,495.46337 0,-6.57566 -13.41434,0 c 0,0 -4.73447,-1.31513 -10.95942,-1.31513 -12.88828,0 -19.99,6.92637 -19.99,16.746 0,7.80311 4.73448,12.36224 7.80311,14.11575 -1.66583,4.99749 -4.03307,9.20592 -7.18938,12.09921 l 6.0496,2.45491 c -1.22745,1.13978 -4.73447,3.77005 -4.73447,8.85521 0,8.32916 7.45242,12.80062 17.53508,12.80062 10.60872,0 20.6914,-6.22497 20.6914,-16.57066 0,-10.43336 -9.6443,-12.80061 -16.83368,-12.80061 -2.98096,0 -8.67986,0.43838 -8.67986,0.43838 l 1.0521,-4.2961 c 0,0 2.54259,0.52605 7.01404,0.52605 7.36472,0 17.27205,-5.61123 17.27205,-15.78157 0,-5.96193 -1.92886,-8.59219 -1.92886,-8.59219 l -4.64679,0 0,-2.10421 10.95942,0 m -16.3953,9.38127 c 0,6.13727 -2.54259,10.08267 -7.71544,10.08267 -4.20841,0 -7.62776,-3.68237 -7.62776,-10.60873 0,-6.57565 2.98097,-9.73197 7.62776,-9.73197 4.6468,0 7.71544,4.73448 7.71544,10.25803 m 1.40281,38.40183 c 0,3.06864 -3.68237,5.26053 -7.36474,5.26053 -4.12074,0 -6.83868,-2.63027 -7.89079,-5.96193 -1.0521,-3.41934 -0.52605,-7.80311 -0.52605,-7.80311 l 8.41684,2.01653 c 3.50702,0.87675 7.36474,1.75351 7.36474,6.48798"
         style="letter-spacing:-3.15517211px;fill:#000000"
         id="path3592"
         inkscape:connector-curvature="0" />
      <path
         d="m 228.89622,537.10919 0,-22.97096 c 0,-16.13226 -1.75353,-26.30263 -19.81465,-26.30263 -6.31262,0 -12.53759,0.78908 -15.78157,1.31514 l 1.0521,8.24149 c 3.77004,-1.13978 7.36474,-2.45492 12.62526,-2.45492 4.90982,0 10.52105,3.33168 10.52105,10.95943 l 0,2.45491 c 0,0 -3.41934,-0.7014 -8.41684,-0.7014 -12.18687,0 -18.58719,9.03058 -18.58719,16.92136 0,8.76753 5.17286,13.58969 13.23899,13.58969 7.1017,0 10.78408,-5.08518 14.02807,-9.73197 l 0.61373,0.52605 c 0,0 -0.87676,1.66583 -0.87676,2.71794 l 0,5.43587 11.39781,0 m -11.39781,-16.746 c 0,4.38376 -5.43588,8.59219 -8.41684,8.59219 -4.38376,0 -6.4003,-2.71794 -6.4003,-7.01404 0,-4.29609 3.77004,-8.76754 8.15381,-8.76754 2.89329,0 5.17285,0.96443 6.66333,2.63026 l 0,4.55913"
         style="letter-spacing:-3.15517211px;fill:#000000"
         id="path3594"
         inkscape:connector-curvature="0" />
      <path
         d="m 249.93262,478.26245 c 0,-3.68237 -3.06865,-6.75101 -6.75101,-6.75101 -3.68237,0 -6.75101,3.06864 -6.75101,6.75101 0,3.68236 3.06864,6.75101 6.75101,6.75101 3.68236,0 6.75101,-3.06865 6.75101,-6.75101 m -1.05211,58.84674 0,-48.22148 -11.3978,0 0,48.22148 11.3978,0"
         style="letter-spacing:-3.15517211px;fill:#000000"
         id="path3596"
         inkscape:connector-curvature="0"
         sodipodi:nodetypes="cssscccccc" />
      <path
         d="m 300.65262,488.88771 -9.6443,0 -11.22245,34.63179 -0.61373,0 -12.88829,-34.63179 -14.20342,0 19.02557,48.22148 9.995,0 19.55162,-48.22148"
         style="letter-spacing:-3.15517211px;fill:#000000"
         id="path3598"
         inkscape:connector-curvature="0" />
      <path
         d="m 345.43672,513.26148 c 0,-16.83367 -8.32918,-25.51355 -21.91886,-25.51355 -14.2034,0 -23.67236,7.62778 -23.67236,24.72447 0,16.48296 9.20593,25.60122 22.35723,25.60122 13.32665,0 23.23399,-7.97848 23.23399,-24.81214 m -13.32666,0.17535 c 0,11.74849 -3.06865,17.18438 -9.20592,17.18438 -6.751,0 -9.81965,-8.67988 -9.81965,-18.58719 0,-11.74849 2.89329,-16.83368 9.73197,-16.83368 7.1017,0 9.2936,7.80312 9.2936,18.23649"
         style="letter-spacing:-3.15517211px;fill:#000000"
         id="path3600"
         inkscape:connector-curvature="0" />
      <path
         d="m 373.95567,495.46337 0,-6.57566 -10.78408,0 0,-12.88829 -7.18938,0 -3.15632,12.88829 -6.31263,0 0,6.57566 5.26053,0 0,21.48047 c 0,20.16533 13.41434,21.48048 15.60622,21.83118 l 4.82215,-3.06863 -9.03057,-13.15132 0,-24.98749 10.78408,-2.10421"
         style="letter-spacing:-3.15517211px;fill:#000000"
         id="path3602"
         inkscape:connector-curvature="0" />
      <path
         d="m 414.84232,537.10919 0,-22.97096 c 0,-16.13226 -1.75353,-26.30263 -19.81465,-26.30263 -6.31262,0 -12.53759,0.78908 -15.78157,1.31514 l 1.0521,8.24149 c 3.77004,-1.13978 7.36474,-2.45492 12.62526,-2.45492 4.90982,0 10.52105,3.33168 10.52105,10.95943 l 0,2.45491 c 0,0 -3.41934,-0.7014 -8.41684,-0.7014 -12.18687,0 -18.58719,9.03058 -18.58719,16.92136 0,8.76753 5.17286,13.58969 13.23899,13.58969 7.1017,0 10.78408,-5.08518 14.02807,-9.73197 l 0.61373,0.52605 c 0,0 -0.87676,1.66583 -0.87676,2.71794 l 0,5.43587 11.39781,0 m -11.39781,-16.746 c 0,4.38376 -5.43588,8.59219 -8.41684,8.59219 -4.38377,0 -6.4003,-2.71794 -6.4003,-7.01404 0,-4.29609 3.77004,-8.76754 8.15381,-8.76754 2.89329,0 5.17285,0.96443 6.66333,2.63026 l 0,4.55913"
         style="letter-spacing:-3.15517211px;fill:#000000"
         id="path3604"
         inkscape:connector-curvature="0" />
      <path
         d="m 431.26491,532.598 c 0,-3.00745 -2.46065,-5.4681 -5.46811,-5.4681 -3.00746,0 -5.46811,2.46065 -5.46811,5.4681 0,3.00746 2.46065,5.46811 5.46811,5.46811 3.00746,0 5.46811,-2.46065 5.46811,-5.46811"
         style="font-size:68.35132599px;letter-spacing:-1.95230222px;fill:#000000"
         id="path3606"
         inkscape:connector-curvature="0" />
      <path
         d="m 455.57111,496.2351 0,-6.72772 c -0.95204,-0.12694 -1.96754,-0.25388 -3.10999,-0.25388 -2.47529,0 -5.26793,0.44429 -7.74323,2.03101 -3.99854,2.53876 -5.96609,7.29895 -5.96609,10.91668 l -4.12549,0 0,4.76019 3.80815,0 0,30.14781 8.25098,0 0,-30.14781 7.80669,0 0,-4.76019 -8.12404,0 c -0.25387,-2.34835 0.50776,-4.56977 1.90407,-5.77568 0.88857,-0.76163 2.09448,-1.14245 3.36387,-1.14245 1.52325,0.0635 3.04651,0.50776 3.93508,0.95204"
         style="font-size:63.46908569px;letter-spacing:-1.95230222px;fill:#000000"
         id="path3608"
         inkscape:connector-curvature="0" />
      <path
         d="m 509.36847,537.10919 0,-23.48356 c 0,-6.66425 -4.63325,-12.1226 -10.28199,-12.1226 -2.79264,0 -5.39488,1.01551 -7.36242,3.17346 -2.28488,2.47529 -5.01406,8.94914 -5.01406,8.94914 l -1.0155,-0.63469 1.58673,-3.93508 c -1.26939,-4.37937 -5.39488,-7.55283 -9.71077,-7.55283 -2.79264,0 -5.39488,1.01551 -7.36242,3.17346 -2.28488,2.47529 -5.01406,8.94914 -5.01406,8.94914 l -1.0155,-0.63469 2.15795,-5.01406 0,-5.77569 -8.25098,0 0,34.908 8.25098,0 0,-17.58093 c 0,0 0.25388,-4.56978 3.04651,-7.48936 1.71367,-1.77713 3.17346,-2.41182 4.88712,-2.41182 2.28489,0 5.33141,2.4753 5.33141,7.9971 l 0,19.48501 8.25098,0 0,-17.58093 c 0,0 0.25388,-4.56978 3.04651,-7.48936 1.71367,-1.77713 3.17346,-2.41182 4.88712,-2.41182 2.28489,0 5.33141,2.4753 5.33141,7.9971 l 0,19.48501 8.25098,0"
         style="font-size:63.46908569px;letter-spacing:-1.95230222px;fill:#000000"
         id="path3610"
         inkscape:connector-curvature="0" />
      <path
         d="m 524.57859,532.92023 c 0,-2.79263 -2.28489,-5.07752 -5.07752,-5.07752 -2.79264,0 -5.07753,2.28489 -5.07753,5.07752 0,2.79264 2.28489,5.07753 5.07753,5.07753 2.79263,0 5.07752,-2.28489 5.07752,-5.07753"
         style="font-size:63.46908569px;letter-spacing:-1.95230222px;fill:#000000"
         id="path3612"
         inkscape:connector-curvature="0" />
      <path
         d="m 560.82279,518.25887 c 0,-10.40892 -3.36387,-16.69237 -11.23403,-16.69237 -6.60078,0 -10.4724,7.42589 -12.56688,12.05913 l -1.01551,-0.63469 2.15795,-5.01406 0,-18.4695 -8.25098,0 0,47.60181 3.61774,0 3.04652,-2.34835 c 1.71366,1.65019 4.06202,2.98304 7.48935,2.98304 10.09157,0 16.75584,-8.12405 16.75584,-19.48501 m -9.07608,1.90408 c 0,9.203 -3.87162,13.39197 -9.13955,13.39197 -1.71367,0 -3.17346,-0.8251 -4.44284,-1.90407 l 0,-11.2975 c 0,-4.88711 4.37937,-11.80525 7.87017,-11.80525 4.56977,0 5.71222,5.71223 5.71222,11.61485"
         style="font-size:63.46908569px;letter-spacing:-1.95230222px;fill:#000000"
         id="path3614"
         inkscape:connector-curvature="0" />
      <path
         d="m 586.91091,511.15034 0,-9.71077 c -2.79263,0 -6.21997,0.69816 -8.63179,3.23692 -2.72917,2.85611 -5.45834,8.94914 -5.45834,8.94914 l -1.01551,-0.63469 2.15795,-5.01406 0,-5.77569 -8.25098,0 0,34.908 8.25098,0 0,-17.58093 c 0,0 1.07898,-4.37937 5.64875,-7.36242 3.23692,-2.09448 7.29894,-1.0155 7.29894,-1.0155"
         style="font-size:63.46908569px;letter-spacing:-1.95230222px;fill:#000000"
         id="path3616"
         inkscape:connector-curvature="0" />
    </g>
    <g
       id="g3618"
       transform="matrix(0.21839477,0,0,0.21839477,270.28103,461.18171)"
       inkscape:export-filename="/home/felipe/Dropbox/projetos/gaivota/material/logo novo 600.png"
       inkscape:export-xdpi="350.54001"
       inkscape:export-ydpi="350.54001">
      <g
         transform="matrix(1.0514396,0,0,1.0514396,-7.6367147,-30.833843)"
         id="g3620">
        <path
           inkscape:connector-curvature="0"
           id="path3622"
           style="font-size:52.84402466px;font-style:normal;font-weight:normal;text-align:center;line-height:125%;letter-spacing:0px;word-spacing:0px;text-anchor:middle;fill:#000000;fill-opacity:1;stroke:none;font-family:Sans"
           d="m 148.45979,560.94631 7.63761,0 0,20.48738 c -1e-5,3.25116 0.0946,5.35838 0.28383,6.32167 0.32683,1.54817 1.10091,2.79531 2.32225,3.7414 1.23852,0.9289 2.9243,1.39335 5.05734,1.39335 2.16741,0 3.80158,-0.43864 4.90252,-1.31594 1.10089,-0.89449 1.76316,-1.98681 1.98681,-3.27695 0.2236,-1.29013 0.33541,-3.43175 0.33544,-6.42489 l 0,-20.92602 7.63761,0 0,19.86811 c -3e-5,4.5413 -0.20645,7.74944 -0.61926,9.62443 -0.41288,1.875 -1.17836,3.45757 -2.29645,4.7477 -1.10095,1.29014 -2.5803,2.32225 -4.43807,3.09633 -1.85782,0.75688 -4.28328,1.13532 -7.27638,1.13532 -3.6124,0 -6.35609,-0.41284 -8.23107,-1.23853 -1.85781,-0.84289 -3.32856,-1.9266 -4.41227,-3.25115 -1.08372,-1.34173 -1.7976,-2.74368 -2.14163,-4.20584 -0.49886,-2.16743 -0.74828,-5.36696 -0.74828,-9.59863 l 0,-20.17774" />
        <path
           inkscape:connector-curvature="0"
           id="path3624"
           style="font-size:52.84402466px;font-style:normal;font-weight:normal;text-align:center;line-height:125%;letter-spacing:0px;word-spacing:0px;text-anchor:middle;fill:#000000;fill-opacity:1;stroke:none;font-family:Sans"
           d="m 185.81755,560.94631 15.12041,0 c 2.9931,3e-5 5.22073,0.12905 6.68291,0.38704 1.47933,0.24086 2.79527,0.75691 3.94782,1.54816 1.1697,0.79132 2.1416,1.84923 2.91571,3.17374 0.77405,1.30737 1.16109,2.77813 1.16113,4.41227 -4e-5,1.77181 -0.48169,3.39739 -1.44496,4.87672 -0.94613,1.47938 -2.23626,2.58889 -3.87041,3.32855 2.30502,0.67089 4.0768,1.81481 5.31537,3.43177 1.23849,1.61699 1.85776,3.51779 1.8578,5.70241 -4e-5,1.72019 -0.40428,3.39736 -1.21273,5.03153 -0.79132,1.61698 -1.88364,2.91571 -3.27695,3.89622 -1.37618,0.9633 -3.07916,1.55676 -5.10895,1.78038 -1.27296,0.13762 -4.34348,0.22363 -9.21158,0.25803 l -12.87557,0 0,-37.82682 m 7.63762,6.29587 0,8.74713 5.00573,0 c 2.9759,2e-5 4.82509,-0.043 5.54759,-0.12902 1.30731,-0.15479 2.33082,-0.60204 3.07053,-1.34174 0.75685,-0.75685 1.13529,-1.74596 1.13532,-2.96732 -3e-5,-1.16969 -0.32686,-2.11579 -0.98051,-2.8383 -0.63649,-0.73965 -1.59119,-1.18689 -2.8641,-1.34174 -0.7569,-0.086 -2.93293,-0.12898 -6.5281,-0.12901 l -4.38646,0 m 0,15.043 0,10.11467 7.06995,0 c 2.75227,10e-6 4.49825,-0.0774 5.23796,-0.23222 1.13529,-0.20642 2.05559,-0.70527 2.76089,-1.49656 0.72245,-0.80848 1.08369,-1.88359 1.08371,-3.22534 -2e-5,-1.13531 -0.27525,-2.09861 -0.82568,-2.88991 -0.55049,-0.79127 -1.35037,-1.36753 -2.39966,-1.72878 -1.03213,-0.36123 -3.28557,-0.54185 -6.76032,-0.54186 l -6.16685,0" />
        <path
           inkscape:connector-curvature="0"
           id="path3626"
           style="font-size:52.84402466px;font-style:normal;font-weight:normal;text-align:center;line-height:125%;letter-spacing:0px;word-spacing:0px;text-anchor:middle;fill:#000000;fill-opacity:1;stroke:none;font-family:Sans"
           d="m 257.18333,598.77313 -8.30848,0 -3.30275,-8.59231 -15.12041,0 -3.12213,8.59231 -8.10207,0 14.73337,-37.82682 8.07626,0 15.14621,37.82682 m -14.06249,-14.96559 -5.21216,-14.03669 -5.10894,14.03669 10.3211,0" />
        <path
           inkscape:connector-curvature="0"
           id="path3628"
           style="font-size:52.84402466px;font-style:normal;font-weight:normal;text-align:center;line-height:125%;letter-spacing:0px;word-spacing:0px;text-anchor:middle;fill:#000000;fill-opacity:1;stroke:none;font-family:Sans"
           d="m 264.94535,598.77313 0,-31.42774 -11.2242,0 0,-6.39908 30.0602,0 0,6.39908 -11.19839,0 0,31.42774 -7.63761,0" />
        <path
           inkscape:connector-curvature="0"
           id="path3630"
           style="font-size:52.84402466px;font-style:normal;font-weight:normal;text-align:center;line-height:125%;letter-spacing:0px;word-spacing:0px;text-anchor:middle;fill:#000000;fill-opacity:1;stroke:none;font-family:Sans"
           d="m 287.77617,560.94631 7.63761,0 0,20.48738 c -10e-6,3.25116 0.0946,5.35838 0.28383,6.32167 0.32682,1.54817 1.1009,2.79531 2.32225,3.7414 1.23851,0.9289 2.92429,1.39335 5.05734,1.39335 2.1674,0 3.80158,-0.43864 4.90252,-1.31594 1.10089,-0.89449 1.76316,-1.98681 1.98681,-3.27695 0.2236,-1.29013 0.33541,-3.43175 0.33543,-6.42489 l 0,-20.92602 7.63762,0 0,19.86811 c -4e-5,4.5413 -0.20646,7.74944 -0.61927,9.62443 -0.41288,1.875 -1.17836,3.45757 -2.29644,4.7477 -1.10095,1.29014 -2.58031,2.32225 -4.43808,3.09633 -1.85782,0.75688 -4.28327,1.13532 -7.27637,1.13532 -3.6124,0 -6.35609,-0.41284 -8.23108,-1.23853 -1.8578,-0.84289 -3.32856,-1.9266 -4.41227,-3.25115 -1.08372,-1.34173 -1.79759,-2.74368 -2.14162,-4.20584 -0.49886,-2.16743 -0.74829,-5.36696 -0.74828,-9.59863 l 0,-20.17774" />
        <path
           inkscape:connector-curvature="0"
           id="path3632"
           style="font-size:52.84402466px;font-style:normal;font-weight:normal;text-align:center;line-height:125%;letter-spacing:0px;word-spacing:0px;text-anchor:middle;fill:#000000;fill-opacity:1;stroke:none;font-family:Sans"
           d="m 325.13392,560.94631 15.12041,0 c 2.9931,3e-5 5.22074,0.12905 6.68292,0.38704 1.47933,0.24086 2.79526,0.75691 3.94782,1.54816 1.16969,0.79132 2.14159,1.84923 2.91571,3.17374 0.77404,1.30737 1.16109,2.77813 1.16112,4.41227 -3e-5,1.77181 -0.48169,3.39739 -1.44495,4.87672 -0.94614,1.47938 -2.23627,2.58889 -3.87042,3.32855 2.30502,0.67089 4.07681,1.81481 5.31537,3.43177 1.2385,1.61699 1.85776,3.51779 1.8578,5.70241 -4e-5,1.72019 -0.40428,3.39736 -1.21273,5.03153 -0.79132,1.61698 -1.88363,2.91571 -3.27695,3.89622 -1.37618,0.9633 -3.07916,1.55676 -5.10894,1.78038 -1.27296,0.13762 -4.34349,0.22363 -9.21158,0.25803 l -12.87558,0 0,-37.82682 m 7.63762,6.29587 0,8.74713 5.00573,0 c 2.9759,2e-5 4.82509,-0.043 5.54759,-0.12902 1.30732,-0.15479 2.33082,-0.60204 3.07053,-1.34174 0.75685,-0.75685 1.13529,-1.74596 1.13532,-2.96732 -3e-5,-1.16969 -0.32686,-2.11579 -0.98051,-2.8383 -0.63649,-0.73965 -1.59119,-1.18689 -2.8641,-1.34174 -0.7569,-0.086 -2.93293,-0.12898 -6.5281,-0.12901 l -4.38646,0 m 0,15.043 0,10.11467 7.06995,0 c 2.75227,10e-6 4.49826,-0.0774 5.23796,-0.23222 1.13529,-0.20642 2.05559,-0.70527 2.76089,-1.49656 0.72245,-0.80848 1.08369,-1.88359 1.08372,-3.22534 -3e-5,-1.13531 -0.27526,-2.09861 -0.82569,-2.88991 -0.55049,-0.79127 -1.35037,-1.36753 -2.39966,-1.72878 -1.03213,-0.36123 -3.28557,-0.54185 -6.76032,-0.54186 l -6.16685,0" />
        <path
           inkscape:connector-curvature="0"
           id="path3635"
           style="font-size:52.84402466px;font-style:normal;font-weight:normal;text-align:center;line-height:125%;letter-spacing:0px;word-spacing:0px;text-anchor:middle;fill:#000000;fill-opacity:1;stroke:none;font-family:Sans"
           d="m 396.49972,598.77313 -8.30849,0 -3.30275,-8.59231 -15.12041,0 -3.12213,8.59231 -8.10206,0 14.73337,-37.82682 8.07626,0 15.14621,37.82682 m -14.0625,-14.96559 -5.21215,-14.03669 -5.10895,14.03669 10.3211,0" />
      </g>
      <g
         id="g3637">
        <path
           inkscape:connector-curvature="0"
           id="path3642"
           style="font-size:71.91319275px;font-style:normal;font-weight:normal;text-align:center;line-height:125%;letter-spacing:0px;word-spacing:0px;text-anchor:middle;fill:#000000;fill-opacity:1;stroke:none;font-family:Sans"
           d="m 441.91323,598.77313 -9.86699,0 0,-37.18558 c -3.60504,3.37097 -7.85381,5.86405 -12.74634,7.47925 l 0,-8.95403 c 2.57501,-0.84269 5.37241,-2.43452 8.39222,-4.77549 3.01977,-2.36428 5.09149,-5.11487 6.21515,-8.25175 l 8.00596,0 0,51.6876" />
        <path
           inkscape:connector-curvature="0"
           id="path3647"
           style="font-size:71.91319275px;font-style:normal;font-weight:normal;text-align:center;line-height:125%;letter-spacing:0px;word-spacing:0px;text-anchor:middle;fill:#000000;fill-opacity:1;stroke:none;font-family:Sans"
           d="m 466.46755,547.08553 c 4.98614,5e-5 8.88378,1.77915 11.69292,5.3373 3.34748,4.21371 5.02124,11.20136 5.02128,20.96298 -4e-5,9.73826 -1.6855,16.73762 -5.0564,20.99809 -2.78572,3.51139 -6.67166,5.26708 -11.6578,5.26708 -5.00959,0 -9.04768,-1.91956 -12.11428,-5.75867 -3.06662,-3.86252 -4.59992,-10.73313 -4.59992,-20.61184 0,-9.69139 1.68546,-16.66734 5.0564,-20.92787 2.78569,-3.51133 6.67162,-5.26702 11.6578,-5.26707 m 0,8.18153 c -1.19389,4e-5 -2.25901,0.38629 -3.19536,1.15875 -0.93639,0.74914 -1.66207,2.10687 -2.17706,4.07321 -0.67888,2.55164 -1.01832,6.84724 -1.0183,12.88679 -2e-5,6.0396 0.3043,10.19474 0.91296,12.46542 0.60862,2.2473 1.36942,3.74549 2.2824,4.49458 0.93635,0.7491 2.00147,1.12365 3.19536,1.12364 1.19385,10e-6 2.25897,-0.37454 3.19536,-1.12364 0.93635,-0.7725 1.66203,-2.14194 2.17706,-4.10833 0.67884,-2.52818 1.01828,-6.81207 1.0183,-12.85167 -2e-5,-6.03955 -0.30434,-10.18299 -0.91296,-12.43031 -0.60866,-2.27066 -1.38117,-3.78055 -2.31751,-4.52969 -0.91298,-0.77246 -1.9664,-1.15871 -3.16025,-1.15875" />
        <path
           inkscape:connector-curvature="0"
           id="path3649"
           style="font-size:71.91319275px;font-style:normal;font-weight:normal;text-align:center;line-height:125%;letter-spacing:0px;word-spacing:0px;text-anchor:middle;fill:#000000;fill-opacity:1;stroke:none;font-family:Sans"
           d="m 508.25831,598.77313 0,-10.35859 -21.06832,0 0,-8.63801 22.33241,-32.691 8.28688,0 0,32.65589 6.39072,0 0,8.67312 -6.39072,0 0,10.35859 -9.55097,0 m 0,-19.03171 0,-17.59205 -11.83338,17.59205 11.83338,0" />
        <path
           inkscape:connector-curvature="0"
           id="path3651"
           style="font-size:71.91319275px;font-style:normal;font-weight:normal;text-align:center;line-height:125%;letter-spacing:0px;word-spacing:0px;text-anchor:middle;fill:#000000;fill-opacity:1;stroke:none;font-family:Sans"
           d="m 530.1395,598.77313 0,-9.86699 9.86699,0 0,9.86699 -9.86699,0" />
        <path
           inkscape:connector-curvature="0"
           id="path3653"
           style="font-size:71.91319275px;font-style:normal;font-weight:normal;text-align:center;line-height:125%;letter-spacing:0px;word-spacing:0px;text-anchor:middle;fill:#000000;fill-opacity:1;stroke:none;font-family:Sans"
           d="m 547.28031,586.86953 9.55097,-1.05341 c 0.23408,1.94297 0.84272,3.38264 1.82592,4.319 0.98317,0.93638 2.28238,1.40456 3.89764,1.40456 2.03658,0 3.76886,-0.93637 5.19685,-2.80911 1.42794,-1.87273 2.3409,-5.75866 2.73888,-11.65781 -2.4814,2.87936 -5.58312,4.31903 -9.30517,4.31901 -4.04981,2e-5 -7.54949,-1.5567 -10.49905,-4.67014 -2.92616,-3.13682 -4.38923,-7.21002 -4.38923,-12.21963 0,-5.22022 1.54501,-9.42217 4.63503,-12.60588 3.11342,-3.20701 7.06958,-4.81054 11.86849,-4.81059 5.22023,5e-5 9.50412,2.02494 12.85167,6.07469 3.34749,4.02643 5.02125,10.66295 5.02128,19.90956 -3e-5,9.41054 -1.74402,16.19921 -5.23196,20.36605 -3.48801,4.16684 -8.0294,6.25026 -13.62418,6.25026 -4.02641,0 -7.28029,-1.06512 -9.76166,-3.19536 -2.48138,-2.15364 -4.07321,-5.36071 -4.77548,-9.6212 m 22.33241,-21.55991 c -2e-5,-3.18362 -0.73741,-5.65329 -2.21217,-7.40902 -1.45139,-1.75566 -3.13686,-2.6335 -5.0564,-2.63354 -1.82593,4e-5 -3.34753,0.72572 -4.5648,2.17705 -1.19388,1.42801 -1.79082,3.78064 -1.7908,7.05789 -2e-5,3.32414 0.65544,5.77041 1.96637,7.3388 1.3109,1.54503 2.94955,2.31754 4.91594,2.31751 1.89613,3e-5 3.48796,-0.74907 4.77549,-2.24728 1.31089,-1.49817 1.96635,-3.69863 1.96637,-6.60141" />
      </g>
    </g>
    <rect
       style="fill:none;stroke:none;stroke-width:1;stroke-miterlimit:4;stroke-opacity:1;stroke-dasharray:none;stroke-dashoffset:0"
       id="rect3721"
       width="154.04826"
       height="154.04826"
       x="272.6254"
       y="463.76813"
       inkscape:export-filename="/home/felipe/Dropbox/projetos/gaivota/material/logo novo 600.png"
       inkscape:export-xdpi="350.54001"
       inkscape:export-ydpi="350.54001" />
  </g>
</svg>
